<svg width="26" height="25" viewBox="0 0 26 25" fill="none" xmlns="http://www.w3.org/2000/svg">
<path d="M25.368 5.64697C25.1223 5.34844 24.8139 5.10774 24.4645 4.94199C24.1152 4.77623 23.7337 4.6895 23.347 4.68797H6.93105L6.42205 2.77097C6.2717 2.22307 5.94423 1.74033 5.49072 1.39807C5.03722 1.05582 4.48318 0.873294 3.91505 0.878974H1.16605C0.952947 0.878974 0.748574 0.963628 0.597888 1.11431C0.447203 1.265 0.362549 1.46937 0.362549 1.68247C0.362549 1.89558 0.447203 2.09995 0.597888 2.25063C0.748574 2.40132 0.952947 2.48597 1.16605 2.48597H3.91505C4.11005 2.48392 4.30027 2.54634 4.45615 2.66352C4.61203 2.7807 4.72484 2.94608 4.77705 3.13397L8.06505 15.727C8.21535 16.2747 8.54267 16.7573 8.99598 17.0996C9.44928 17.4418 10.0031 17.6244 10.571 17.619H21.325C21.894 17.6284 22.4497 17.4473 22.9038 17.1044C23.3579 16.7616 23.6843 16.2767 23.831 15.727L25.852 7.74597C25.9483 7.38313 25.9545 7.00228 25.8702 6.63649C25.7859 6.27069 25.6135 5.93102 25.368 5.64697ZM24.209 7.37897L22.188 15.36C22.1358 15.5479 22.023 15.7133 21.8671 15.8304C21.7113 15.9476 21.5211 16.01 21.326 16.008H10.572C10.377 16.01 10.1868 15.9476 10.031 15.8304C9.87507 15.7133 9.76226 15.5479 9.71005 15.36L7.36505 6.32097H23.346C23.4804 6.32172 23.6129 6.35235 23.734 6.41063C23.8551 6.46892 23.9617 6.55341 24.046 6.65797C24.13 6.75571 24.1888 6.87252 24.2172 6.9982C24.2456 7.12389 24.2428 7.25462 24.209 7.37897Z" fill="white"/>
<path d="M11.1941 18.805C10.5842 18.805 9.98789 18.9859 9.48073 19.3247C8.97357 19.6636 8.57829 20.1453 8.34487 20.7088C8.11144 21.2723 8.05037 21.8924 8.16937 22.4906C8.28836 23.0889 8.58209 23.6384 9.01339 24.0697C9.4447 24.501 9.99421 24.7947 10.5925 24.9137C11.1907 25.0327 11.8108 24.9717 12.3743 24.7382C12.9378 24.5048 13.4195 24.1095 13.7584 23.6024C14.0972 23.0952 14.2781 22.499 14.2781 21.889C14.2739 21.0724 13.9476 20.2904 13.3702 19.7129C12.7927 19.1355 12.0107 18.8092 11.1941 18.805ZM11.1941 23.105C10.9536 23.105 10.7185 23.0337 10.5185 22.9001C10.3186 22.7664 10.1627 22.5765 10.0707 22.3543C9.97863 22.1321 9.95455 21.8876 10.0015 21.6518C10.0484 21.4159 10.1642 21.1992 10.3343 21.0292C10.5043 20.8591 10.721 20.7433 10.9569 20.6964C11.1928 20.6494 11.4373 20.6735 11.6595 20.7656C11.8816 20.8576 12.0716 21.0134 12.2052 21.2134C12.3388 21.4134 12.4101 21.6485 12.4101 21.889C12.4037 22.2095 12.2735 22.5151 12.0469 22.7418C11.8202 22.9684 11.5146 23.0986 11.1941 23.105Z" fill="white"/>
<path d="M19.855 18.805C19.245 18.805 18.6488 18.9859 18.1416 19.3247C17.6345 19.6636 17.2392 20.1453 17.0058 20.7088C16.7723 21.2723 16.7113 21.8924 16.8303 22.4906C16.9493 23.0889 17.243 23.6384 17.6743 24.0697C18.1056 24.501 18.6551 24.7947 19.2533 24.9137C19.8516 25.0327 20.4717 24.9717 21.0352 24.7382C21.5987 24.5048 22.0804 24.1095 22.4193 23.6024C22.7581 23.0952 22.939 22.499 22.939 21.889C22.9348 21.0724 22.6085 20.2904 22.0311 19.7129C21.4536 19.1355 20.6716 18.8092 19.855 18.805ZM19.855 23.105C19.6145 23.105 19.3794 23.0337 19.1794 22.9001C18.9795 22.7664 18.8236 22.5765 18.7316 22.3543C18.6395 22.1321 18.6154 21.8876 18.6624 21.6518C18.7093 21.4159 18.8251 21.1992 18.9952 21.0292C19.1652 20.8591 19.3819 20.7433 19.6178 20.6964C19.8536 20.6494 20.0981 20.6735 20.3203 20.7656C20.5425 20.8576 20.7325 21.0134 20.8661 21.2134C20.9997 21.4134 21.071 21.6485 21.071 21.889C21.0646 22.2095 20.9344 22.5151 20.7078 22.7418C20.4811 22.9684 20.1755 23.0986 19.855 23.105Z" fill="white"/>
</svg>
