<svg width="35" height="32" viewBox="0 0 35 32" fill="none" xmlns="http://www.w3.org/2000/svg">
<path d="M7.16805 21.1661C7.08328 22.4955 7.52512 23.8048 8.39805 24.8111C8.81231 25.2585 9.32116 25.6079 9.88754 25.8338C10.4539 26.0598 11.0636 26.1565 11.672 26.1171C12.2858 26.1517 12.8998 26.0529 13.4718 25.8274C14.0437 25.6019 14.56 25.2552 14.985 24.8111C15.8296 23.791 16.2546 22.4879 16.174 21.1661C16.2527 19.8502 15.8275 18.5538 14.985 17.5401C14.5615 17.0927 14.046 16.7426 13.474 16.5139C12.902 16.2851 12.2872 16.1832 11.672 16.2151C11.0621 16.178 10.4515 16.2777 9.88506 16.5069C9.31859 16.7362 8.81053 17.0892 8.39805 17.5401C7.5273 18.54 7.08542 19.8427 7.16805 21.1661ZM0.998047 0.727051H7.63605V11.0501C7.63605 12.0667 7.62305 12.7641 7.59705 13.1421C7.54505 13.8087 7.49305 14.2844 7.44105 14.5691C8.0796 13.334 9.04325 12.2967 10.228 11.5691C11.4831 10.904 12.893 10.5861 14.312 10.6481C15.5279 10.6108 16.7363 10.8498 17.8464 11.3471C18.9566 11.8444 19.9394 12.587 20.721 13.5191C22.4267 15.6884 23.2939 18.3995 23.164 21.1561C23.3147 23.9392 22.4462 26.6819 20.721 28.8711C19.9053 29.8252 18.8832 30.5812 17.7322 31.0821C16.5811 31.583 15.3312 31.8155 14.077 31.7621C12.7761 31.7862 11.4951 31.4394 10.384 30.7621C9.17139 30.021 8.14884 29.0067 7.39805 27.8001V31.0001H0.998047V0.727051ZM27.128 27.8071C27.1132 27.2913 27.2044 26.7779 27.3958 26.2987C27.5873 25.8195 27.8749 25.3847 28.241 25.0211C28.605 24.6522 29.0405 24.3617 29.5208 24.1674C30.0011 23.9731 30.5161 23.879 31.034 23.8911C31.5613 23.8751 32.0863 23.9672 32.5768 24.1615C33.0672 24.3558 33.5127 24.6483 33.886 25.0211C34.252 25.3848 34.5395 25.8196 34.7307 26.2988C34.922 26.778 35.013 27.2913 34.998 27.8071C35.014 28.3258 34.9236 28.8422 34.7324 29.3247C34.5411 29.8071 34.2531 30.2452 33.886 30.6121C33.5114 30.984 33.0662 31.2774 32.5766 31.4748C32.087 31.6723 31.5629 31.77 31.035 31.7621C30.5164 31.7661 30.0021 31.6665 29.5225 31.469C29.0428 31.2715 28.6075 30.9801 28.242 30.6121C27.8746 30.2454 27.5862 29.8073 27.3946 29.3249C27.203 28.8425 27.1123 28.3259 27.128 27.8071Z" fill="#7E7E7E"/>
</svg>
