<svg width="24" height="24" viewBox="0 0 24 24" fill="none" xmlns="http://www.w3.org/2000/svg">
<path d="M22.362 5.31986C21.9981 3.92462 21.1445 2.70682 19.957 1.88886C18.5324 0.994822 16.9212 0.440525 15.248 0.268865C13.3629 -0.0342025 11.4453 -0.0789477 9.54804 0.135865C8.14563 0.270199 6.77351 0.626648 5.48304 1.19186C4.45048 1.61055 3.54149 2.28519 2.84169 3.15224C2.1419 4.01928 1.67433 5.05019 1.48304 6.14786C1.28304 7.24786 1.14904 8.23487 1.07104 9.17986C0.87363 11.1642 1.04312 13.1679 1.57104 15.0909C1.94544 16.659 2.90579 18.0244 4.25504 18.9069C4.6259 19.116 5.01772 19.2856 5.42404 19.4129C5.63004 19.4859 5.82404 19.5579 6.00104 19.6339V23.1639C6.00104 23.3854 6.08898 23.5979 6.24554 23.7547C6.40211 23.9114 6.61449 23.9996 6.83604 23.9999C7.05384 23.9999 7.26305 23.9149 7.41904 23.7629L10.676 20.5999C10.818 20.4379 10.818 20.4379 10.964 20.4349C12.077 20.4129 13.214 20.3699 14.344 20.3089C15.8635 20.2881 17.3683 20.0074 18.793 19.4789C20.0809 18.9804 21.1373 18.0209 21.757 16.7869C22.3955 15.4704 22.7809 14.0457 22.893 12.5869C23.161 10.1524 22.981 7.6895 22.362 5.31986ZM16.691 15.7399C16.3618 16.2605 15.8742 16.6618 15.3 16.8849C15.0978 16.9661 14.881 17.0047 14.6632 16.9983C14.4454 16.9919 14.2312 16.9407 14.034 16.8479C10.6087 15.479 7.77079 12.9539 6.01304 9.71087C5.66519 9.00666 5.35541 8.28429 5.08504 7.54686C5.03917 7.38774 5.01067 7.22412 5.00004 7.05887C5.02283 6.55919 5.21849 6.08294 5.55357 5.71157C5.88865 5.34019 6.34233 5.09675 6.83704 5.02286C7.00172 4.98892 7.17238 4.99806 7.3325 5.04939C7.49262 5.10072 7.63678 5.1925 7.75104 5.31587C8.45623 5.99207 9.03231 6.79112 9.45104 7.67386C9.54407 7.84193 9.57393 8.03772 9.53524 8.22588C9.49654 8.41403 9.39184 8.58215 9.24004 8.69986C9.1763 8.75958 9.10955 8.81599 9.04004 8.86887C8.88298 8.94478 8.74452 9.05427 8.63445 9.1896C8.52437 9.32492 8.44536 9.48277 8.40301 9.65199C8.36066 9.82121 8.35599 9.99767 8.38935 10.1689C8.4227 10.3401 8.49326 10.5019 8.59604 10.6429C9.23235 11.9832 10.3626 13.0252 11.75 13.5509C11.919 13.6285 12.1088 13.6486 12.2903 13.6081C12.4717 13.5677 12.635 13.4689 12.755 13.3269C12.7956 13.2891 12.8321 13.2472 12.864 13.2019C13.42 12.2749 14.225 12.3669 14.969 12.8959C15.458 13.2429 15.932 13.6089 16.416 13.9629C17.145 14.4999 17.139 15.0079 16.691 15.7399ZM12.511 6.13987C12.3237 6.13965 12.1368 6.15504 11.952 6.18586C11.8045 6.20627 11.6548 6.1683 11.5348 6.08005C11.4148 5.9918 11.334 5.86022 11.3095 5.71329C11.285 5.56636 11.3188 5.41568 11.4037 5.29328C11.4886 5.17088 11.6178 5.08642 11.764 5.05786C12.0111 5.0185 12.2609 4.9991 12.511 4.99987C13.7012 5.00119 14.8422 5.47456 15.6838 6.31612C16.5253 7.15769 16.9987 8.29871 17 9.48886C17 9.73948 16.9793 9.98967 16.938 10.2369C16.9156 10.37 16.8468 10.491 16.7437 10.5783C16.6407 10.6656 16.5101 10.7136 16.375 10.7139C16.3432 10.7141 16.3114 10.7115 16.28 10.7059C16.1307 10.6806 15.9974 10.5972 15.9095 10.4738C15.8215 10.3505 15.7861 10.1973 15.811 10.0479C15.8913 9.56806 15.8662 9.07653 15.7374 8.60742C15.6086 8.1383 15.3792 7.70284 15.0652 7.33128C14.7512 6.95971 14.3601 6.66095 13.919 6.45573C13.478 6.2505 12.9975 6.14375 12.511 6.14286V6.13987ZM15 9.85686C15 10.0083 14.9399 10.1535 14.8328 10.2606C14.7257 10.3677 14.5805 10.4279 14.429 10.4279C14.2776 10.4279 14.1324 10.3677 14.0253 10.2606C13.9182 10.1535 13.858 10.0083 13.858 9.85686C13.8575 9.40245 13.6768 8.96679 13.3554 8.64547C13.0341 8.32415 12.5985 8.14339 12.144 8.14286C11.9926 8.14286 11.8474 8.08271 11.7403 7.97562C11.6332 7.86854 11.573 7.7233 11.573 7.57186C11.573 7.42043 11.6332 7.27519 11.7403 7.16811C11.8474 7.06102 11.9926 7.00087 12.144 7.00087C12.9013 7.00166 13.6272 7.30281 14.1627 7.83824C14.6981 8.37368 14.9992 9.09965 15 9.85686ZM18.846 10.5569C18.8176 10.6833 18.747 10.7963 18.6457 10.8772C18.5444 10.9581 18.4186 11.0021 18.289 11.0019C18.2463 11.0017 18.2038 10.997 18.162 10.9879C18.0889 10.9713 18.0197 10.9405 17.9585 10.8973C17.8972 10.854 17.8451 10.7991 17.8051 10.7356C17.765 10.6722 17.7379 10.6015 17.7252 10.5276C17.7125 10.4537 17.7145 10.378 17.731 10.3049C17.92 9.47388 17.8954 8.60855 17.6594 7.78968C17.4233 6.97081 16.9836 6.22511 16.3813 5.62221C15.779 5.01931 15.0338 4.57888 14.2151 4.34204C13.3965 4.1052 12.5312 4.07968 11.7 4.26787C11.5523 4.30128 11.3974 4.27465 11.2693 4.19382C11.1412 4.11299 11.0505 3.98459 11.017 3.83686C10.9836 3.68914 11.0103 3.53419 11.0911 3.4061C11.1719 3.27801 11.3003 3.18728 11.448 3.15386C12.4673 2.9221 13.5287 2.95254 14.533 3.24233C15.5374 3.53211 16.4518 4.07179 17.191 4.81093C17.9301 5.55007 18.4698 6.46453 18.7596 7.46886C19.0494 8.47318 19.0798 9.53458 18.848 10.5539L18.846 10.5569Z" fill="white"/>
</svg>
