<svg width="24" height="23" viewBox="0 0 24 23" fill="none" xmlns="http://www.w3.org/2000/svg">
<path d="M22.154 0.00217583C21.8455 0.023073 21.5428 0.0964597 21.259 0.219176C21.009 0.319176 20.059 0.729176 18.552 1.37318C17.045 2.01718 15.052 2.87318 12.931 3.78718C8.682 5.61818 3.9 7.67218 1.457 8.72518C1.18626 8.82178 0.931968 8.95938 0.703 9.13318C0.490127 9.30762 0.317199 9.52574 0.195915 9.7728C0.0746316 10.0198 0.00782005 10.2901 0 10.5652C0.00864272 11.0443 0.199188 11.5023 0.533 11.8462C0.785883 12.0877 1.08577 12.2746 1.414 12.3952L5.994 14.2682C6.194 14.8852 7.294 18.2402 7.547 19.0632C7.654 19.4764 7.83529 19.8668 8.082 20.2152C8.18431 20.3515 8.30991 20.4686 8.453 20.5612C8.51281 20.5974 8.57572 20.6282 8.641 20.6532C8.656 20.6592 8.669 20.6692 8.684 20.6742C8.7122 20.6827 8.74093 20.6894 8.77 20.6942C9.00267 20.7753 9.25219 20.7956 9.49492 20.7532C9.73765 20.7109 9.96554 20.6073 10.157 20.4522L10.178 20.4362L13.188 17.8362L16.838 21.2892C17.0262 21.5286 17.2688 21.7197 17.5457 21.8465C17.8226 21.9733 18.1258 22.0322 18.43 22.0182C18.7023 22.0134 18.9708 21.9533 19.2192 21.8416C19.4676 21.7298 19.6907 21.5688 19.875 21.3682C20.1841 21.0601 20.3932 20.6659 20.475 20.2372C20.554 19.8182 23.918 2.54818 23.918 2.54818L23.912 2.57118C24.0206 2.15172 24.0261 1.71221 23.928 1.29018C23.8146 0.867991 23.5469 0.503683 23.178 0.269176C22.8711 0.0795832 22.5144 -0.0134377 22.154 0.00217583ZM21.967 2.09218C21.967 2.12118 21.967 2.10718 21.967 2.14118V2.15318V2.16518C21.967 2.16518 18.644 19.2152 18.522 19.8652C18.531 19.8162 18.49 19.9142 18.448 19.9722C18.3897 19.9365 18.3288 19.9051 18.266 19.8782L18.247 19.8572L13.261 15.1402L9.736 18.1872L10.785 13.9872C10.785 13.9872 17.341 7.20018 17.736 6.80518C18.054 6.48918 18.121 6.37918 18.121 6.27018C18.1251 6.23574 18.1213 6.20081 18.1099 6.16807C18.0984 6.13534 18.0796 6.10566 18.0549 6.08133C18.0301 6.057 18.0002 6.03865 17.9673 6.0277C17.9344 6.01676 17.8994 6.0135 17.865 6.01818C17.6936 6.05312 17.5329 6.12817 17.396 6.23718C15.963 7.15118 9.671 10.8172 6.851 12.4582L2.234 10.5692L2.248 10.5632C4.696 9.51018 9.472 7.45318 13.721 5.62618C15.846 4.71218 17.839 3.85718 19.342 3.21218C20.822 2.57718 21.85 2.14018 21.967 2.09218Z" fill="white"/>
</svg>
