<svg width="120" height="53" viewBox="0 0 120 53" fill="none" xmlns="http://www.w3.org/2000/svg">
<path d="M18.803 52.6V11.689H22.646V17.417C23.8394 15.3797 25.5643 13.7052 27.6362 12.5727C29.708 11.4403 32.0488 10.8925 34.408 10.988C36.3895 10.9574 38.356 11.3361 40.1844 12.1004C42.0128 12.8648 43.6638 13.9983 45.034 15.43C46.4663 16.8489 47.595 18.5443 48.3515 20.4132C49.1079 22.2821 49.4762 24.2853 49.434 26.301C49.4762 28.3167 49.1079 30.3199 48.3515 32.1888C47.595 34.0577 46.4663 35.7531 45.034 37.172C43.6637 38.6036 42.0127 39.7369 40.1843 40.501C38.3559 41.2652 36.3894 41.6437 34.408 41.613C32.0488 41.7085 29.708 41.1607 27.6362 40.0283C25.5643 38.8958 23.8394 37.2213 22.646 35.184V52.6H18.803ZM25.965 18.088C24.8845 19.1607 24.0332 20.4417 23.4627 21.8534C22.8921 23.265 22.6143 24.7778 22.646 26.3C22.6144 27.8221 22.8923 29.3347 23.4629 30.7461C24.0334 32.1575 24.8846 33.4384 25.965 34.511C27.0189 35.6027 28.287 36.4648 29.6899 37.0431C31.0927 37.6215 32.5999 37.9037 34.117 37.872C35.634 37.9037 37.1413 37.6214 38.5441 37.0431C39.9469 36.4647 41.2151 35.6026 42.269 34.511C43.3493 33.4384 44.2005 32.1575 44.7711 30.7461C45.3416 29.3346 45.6195 27.822 45.588 26.3C45.6196 24.7778 45.3418 23.265 44.7713 21.8534C44.2007 20.4418 43.3494 19.1608 42.269 18.088C41.2151 16.9964 39.9469 16.1343 38.5441 15.5559C37.1413 14.9776 35.634 14.6954 34.117 14.727C32.5999 14.6954 31.0926 14.9778 29.6898 15.5563C28.2869 16.1349 27.0188 16.9971 25.965 18.089V18.088ZM4.796 48.322V45.889H2.041L1.71 44.761H4.796V41.461H5.876V44.761H13.038C13.5205 44.8032 14.0028 44.6782 14.404 44.407C14.5524 44.2679 14.6709 44.1001 14.7524 43.9137C14.8339 43.7274 14.8766 43.5264 14.878 43.323C14.9114 42.7032 14.893 42.0817 14.823 41.465H15.815C16.0788 42.5786 15.9702 43.748 15.506 44.794C15.2339 45.1848 14.8602 45.4939 14.4252 45.6878C13.9902 45.8816 13.5106 45.953 13.038 45.894H5.876V48.327L4.796 48.322ZM93.769 37.171C92.3367 35.7521 91.2079 34.0567 90.4515 32.1878C89.6951 30.3189 89.3268 28.3157 89.369 26.3C89.3268 24.2843 89.6951 22.2811 90.4515 20.4122C91.2079 18.5433 92.3367 16.8479 93.769 15.429C95.1392 13.9973 96.7902 12.8638 98.6186 12.0994C100.447 11.3351 102.413 10.9564 104.395 10.987C106.754 10.8915 109.095 11.4393 111.167 12.5717C113.239 13.7042 114.964 15.3787 116.157 17.416V0H120V40.911H116.157V35.184C114.964 37.2213 113.239 38.8958 111.167 40.0283C109.095 41.1607 106.754 41.7085 104.395 41.613C102.413 41.6436 100.447 41.2649 98.6186 40.5006C96.7902 39.7362 95.1392 38.6027 93.769 37.171ZM96.535 18.089C95.4546 19.1616 94.6034 20.4425 94.0329 21.8539C93.4623 23.2653 93.1844 24.7779 93.216 26.3C93.1844 27.8221 93.4623 29.3347 94.0329 30.7461C94.6034 32.1575 95.4546 33.4384 96.535 34.511C98.7018 36.6625 101.631 37.8699 104.685 37.8699C107.739 37.8699 110.668 36.6625 112.835 34.511C113.915 33.4384 114.767 32.1575 115.337 30.7461C115.908 29.3347 116.186 27.8221 116.154 26.3C116.186 24.7778 115.908 23.265 115.337 21.8534C114.767 20.4417 113.915 19.1607 112.835 18.088C110.668 15.9365 107.739 14.7291 104.685 14.7291C101.631 14.7291 98.7018 15.9365 96.535 18.088V18.089ZM58.542 37.2C57.0902 35.7869 55.9454 34.0896 55.1791 32.2142C54.4127 30.3387 54.0413 28.3254 54.088 26.3C54.0649 24.2827 54.4453 22.2812 55.2067 20.413C55.9681 18.5447 57.0952 16.8475 58.5218 15.4211C59.9483 13.9946 61.6456 12.8676 63.5139 12.1063C65.3821 11.345 67.3837 10.9648 69.401 10.988C71.4184 10.9647 73.42 11.3448 75.2884 12.106C77.1568 12.8672 78.8542 13.9942 80.2809 15.4207C81.7076 16.8472 82.8348 18.5444 83.5962 20.4127C84.3577 22.281 84.7381 24.2826 84.715 26.3C84.7382 28.3174 84.3579 30.3192 83.5965 32.1876C82.8351 34.056 81.7079 35.7534 80.2812 37.18C78.8546 38.6066 77.1571 39.7336 75.2887 40.4949C73.4202 41.2562 71.4184 41.6363 69.401 41.613C67.3862 41.6528 65.3845 41.2821 63.5176 40.5234C61.6507 39.7647 59.9578 38.634 58.542 37.2ZM61.249 18.088C60.1687 19.1608 59.3176 20.4419 58.7473 21.8535C58.1769 23.2651 57.8992 24.7779 57.931 26.3C57.8995 27.822 58.1774 29.3346 58.7479 30.7461C59.3185 32.1575 60.1697 33.4384 61.25 34.511C63.4168 36.6625 66.3465 37.8699 69.4 37.8699C72.4535 37.8699 75.3832 36.6625 77.55 34.511C78.6309 33.4387 79.4827 32.1579 80.0538 30.7465C80.6248 29.335 80.9032 27.8223 80.872 26.3C80.9037 24.7778 80.6259 23.265 80.0553 21.8534C79.4848 20.4417 78.6335 19.1607 77.553 18.088C75.3862 15.9365 72.4565 14.7291 69.403 14.7291C66.3495 14.7291 63.4198 15.9365 61.253 18.088H61.249ZM0.388 38.81V37.7H6.888C6.14839 37.3478 5.53087 36.7827 5.11466 36.0771C4.69844 35.3715 4.50251 34.5577 4.552 33.74C4.52348 33.1635 4.61547 32.5874 4.82208 32.0485C5.0287 31.5096 5.34541 31.0197 5.752 30.61C6.18295 30.2136 6.68839 29.9069 7.23895 29.7076C7.7895 29.5082 8.37418 29.4204 8.959 29.449H15.813V30.577H8.961C8.06553 30.5295 7.18721 30.8355 6.515 31.429C6.20458 31.7432 5.96396 32.1194 5.80887 32.533C5.65378 32.9465 5.58772 33.3882 5.615 33.829C5.59589 34.3467 5.68572 34.8626 5.87865 35.3434C6.07158 35.8242 6.36333 36.2591 6.735 36.62C7.63755 37.3958 8.80984 37.7839 9.997 37.7H15.815V38.81H0.388ZM6.195 25.482C5.65029 24.9456 5.22304 24.3019 4.94037 23.5916C4.6577 22.8813 4.52578 22.12 4.553 21.356C4.52822 20.6114 4.66964 19.8707 4.96699 19.1876C5.26434 18.5045 5.71014 17.8962 6.272 17.407C7.39179 16.4067 8.84773 15.8657 10.349 15.892C10.4077 15.892 10.4957 15.8957 10.613 15.903C10.7303 15.9103 10.8183 15.914 10.877 15.914V25.935C12.0284 25.8438 13.0992 25.3084 13.863 24.442C14.629 23.5553 15.0341 22.4132 14.998 21.242C15.0164 20.4332 14.8267 19.6333 14.447 18.919C14.113 18.2919 13.6086 17.7719 12.992 17.419L13.565 16.446C14.3411 16.9133 14.9723 17.587 15.388 18.392C15.8474 19.28 16.0784 20.2684 16.06 21.268C16.087 22.0383 15.9573 22.806 15.6789 23.5247C15.4004 24.2434 14.9789 24.898 14.44 25.449C13.9007 25.9911 13.2554 26.4162 12.5445 26.6978C11.8336 26.9795 11.0722 27.1116 10.308 27.086C9.54984 27.1086 8.79489 26.9783 8.08823 26.7027C7.38157 26.4271 6.73768 26.0119 6.195 25.482ZM6.724 18.447C5.99272 19.2375 5.59412 20.2793 5.611 21.356C5.57495 22.5163 5.99415 23.6447 6.779 24.5C7.56645 25.345 8.64567 25.859 9.798 25.938V17.043C8.63034 17.0959 7.52859 17.5991 6.724 18.447Z" fill="white"/>
</svg>
