<svg width="20" height="17" viewBox="0 0 20 17" fill="none" xmlns="http://www.w3.org/2000/svg">
<path d="M11.5712 1.8194H0.734214C0.323054 1.8194 0 2.13211 0 2.5301C0 2.92809 0.323054 3.2408 0.734214 3.2408H11.5712C11.8943 4.29264 12.8928 5.0602 14.0969 5.0602C15.2717 5.0602 16.2996 4.29264 16.5932 3.2408H19.2658C19.6769 3.2408 20 2.92809 20 2.5301C20 2.13211 19.6769 1.8194 19.2658 1.8194H16.5932C16.2702 0.767558 15.2717 0 14.0969 0C12.8928 0 11.8943 0.767558 11.5712 1.8194ZM15.2129 2.5301C15.2129 3.15552 14.6843 3.63879 14.0675 3.63879C13.4508 3.63879 12.9222 3.15552 12.9222 2.5301C12.9222 1.90468 13.4508 1.4214 14.0675 1.4214C14.6549 1.4214 15.2129 1.90468 15.2129 2.5301Z" fill="#797979"/>
<path d="M2.76065 7.50519H0.734214C0.323054 7.50519 0 7.8179 0 8.21589C0 8.61388 0.323054 8.92659 0.734214 8.92659H2.76065C3.0837 9.97843 4.08223 10.746 5.28634 10.746C6.46109 10.746 7.48899 9.97843 7.78267 8.92659H19.2658C19.6769 8.92659 20 8.61388 20 8.21589C20 7.8179 19.6769 7.50519 19.2658 7.50519H7.78267C7.45962 6.45335 6.46109 5.68579 5.28634 5.68579C4.08223 5.68579 3.0837 6.45335 2.76065 7.50519ZM6.40235 8.21589C6.40235 8.84131 5.87372 9.32459 5.25698 9.32459C4.64024 9.32459 4.1116 8.84131 4.1116 8.21589C4.1116 7.59047 4.64024 7.1072 5.25698 7.1072C5.87372 7.1072 6.40235 7.59047 6.40235 8.21589Z" fill="#797979"/>
<path d="M8.04699 13.7591H0.734214C0.323054 13.7591 0 14.0718 0 14.4698C0 14.8678 0.323054 15.1805 0.734214 15.1805H8.04699C8.37004 16.2323 9.36858 16.9999 10.5727 16.9999C11.7474 16.9999 12.7753 16.2323 13.069 15.1805H19.2658C19.6769 15.1805 20 14.8678 20 14.4698C20 14.0718 19.6769 13.7591 19.2658 13.7591H13.069C12.746 12.7073 11.7474 11.9397 10.5727 11.9397C9.36858 11.9397 8.37004 12.7073 8.04699 13.7591ZM11.6887 14.4698C11.6887 15.0952 11.1601 15.5785 10.5433 15.5785C9.92658 15.5785 9.39794 15.0952 9.39794 14.4698C9.39794 13.8444 9.92658 13.3611 10.5433 13.3611C11.1601 13.3611 11.6887 13.8444 11.6887 14.4698Z" fill="#797979"/>
</svg>
