<svg width="25" height="25" viewBox="0 0 25 25" fill="none" xmlns="http://www.w3.org/2000/svg">
<path d="M24.3926 23.1674L16.2736 15.1014C17.8105 13.297 18.5861 10.9661 18.4369 8.60066C18.2876 6.23519 17.2251 4.02027 15.4736 2.4234C13.7178 0.819813 11.4127 -0.0471633 9.03531 0.00198067C6.65798 0.0511246 4.39058 1.01263 2.7026 2.6874C1.01996 4.35651 0.0516358 6.61408 0.00200597 8.98362C-0.0476238 11.3532 0.825322 13.6493 2.4366 15.3874C4.05386 17.1305 6.27951 18.1849 8.65275 18.3324C11.026 18.4798 13.365 17.709 15.1856 16.1794L23.2966 24.2534L24.3926 23.1674ZM9.2396 16.8294C7.72918 16.8211 6.25505 16.3656 5.00321 15.5205C3.75137 14.6753 2.7779 13.4782 2.20563 12.0804C1.63336 10.6826 1.48792 9.14656 1.78767 7.66616C2.08742 6.18576 2.81892 4.8273 3.88989 3.76219C4.96085 2.69708 6.3233 1.97302 7.80532 1.68139C9.28734 1.38976 10.8225 1.5436 12.2172 2.12353C13.6119 2.70345 14.8036 3.68346 15.6419 4.93991C16.4802 6.19636 16.9276 7.67296 16.9276 9.1834C16.9248 10.1902 16.7238 11.1867 16.336 12.1158C15.9481 13.045 15.381 13.8886 14.6671 14.5986C13.9532 15.3086 13.1065 15.8711 12.1752 16.2538C11.244 16.6366 10.2464 16.8322 9.2396 16.8294Z" fill="#797979"/>
</svg>
